<?xml version="1.0" encoding="UTF-8"?>
<svg version="1.1" xmlns="http://www.w3.org/2000/svg" width="553" height="474">
<path d="M0 0 C182.49 0 364.98 0 553 0 C553 156.42 553 312.84 553 474 C370.51 474 188.02 474 0 474 C0 317.58 0 161.16 0 0 Z " fill="#FDFDFD" transform="translate(0,0)"/>
<path d="M0 0 C5.64396079 3.08841014 8.47901012 8.226572 10.27734375 14.234375 C11.24824718 21.60738872 10.97180804 29.11973557 10.94018555 36.53955078 C10.94860514 38.8137394 10.9591331 41.08792105 10.97160339 43.36209106 C10.99860368 49.51898882 10.9939639 55.67548058 10.98190284 61.83241129 C10.97476198 66.9768153 10.98327702 72.12114469 10.99180824 77.26554286 C11.01288242 90.09359833 11.00377243 102.92137441 10.98033193 115.74940751 C10.96207251 126.18609578 10.973003 136.6224304 11.00463867 147.05908203 C11.04142958 159.19703799 11.05776075 171.33469979 11.0452264 183.4727248 C11.03874025 189.89150492 11.04073836 196.3099874 11.0645504 202.72873306 C11.08579385 208.76185091 11.07783472 214.79424055 11.04745674 220.82731247 C11.04112733 223.03960917 11.04499488 225.25196238 11.05986786 227.46421814 C11.07854543 230.48765049 11.06014095 233.50869927 11.03251648 236.53201294 C11.05361615 237.84087705 11.05361615 237.84087705 11.07514209 239.17618287 C10.95363285 245.78862085 8.66318997 249.39784238 4.27734375 254.234375 C3.57609375 255.03875 2.87484375 255.843125 2.15234375 256.671875 C-1.06796125 259.3554625 -4.40263819 259.35929244 -8.47838974 259.35742283 C-9.91678652 259.3604094 -9.91678652 259.3604094 -11.38424182 259.36345631 C-12.43481934 259.36054347 -13.48539686 259.35763063 -14.56781006 259.35462952 C-15.68603755 259.35548394 -16.80426505 259.35633837 -17.95637822 259.35721868 C-21.71670316 259.35887047 -25.47698384 259.35335698 -29.23730469 259.34790039 C-31.92751669 259.34761843 -34.61772595 259.34773236 -37.30793762 259.3483429 C-43.10665091 259.34886744 -48.90535295 259.3457279 -54.70406342 259.34010506 C-63.0880416 259.33198065 -71.47201435 259.32937387 -79.85599604 259.32811707 C-93.45819966 259.32592803 -107.06039729 259.31927195 -120.66259766 259.30981445 C-133.87646454 259.30063651 -147.09032979 259.29355754 -160.30419922 259.28930664 C-161.11859812 259.28904392 -161.93299702 259.28878119 -162.77207467 259.28851051 C-166.85764357 259.28720548 -170.94321249 259.28594177 -175.02878141 259.28469861 C-208.92674404 259.27433061 -242.82469941 259.25671631 -276.72265625 259.234375 C-275.41015625 256.296875 -275.41015625 256.296875 -273.72265625 253.234375 C-272.73265625 252.904375 -271.74265625 252.574375 -270.72265625 252.234375 C-270.39265625 251.244375 -270.06265625 250.254375 -269.72265625 249.234375 C-269.06265625 249.234375 -268.40265625 249.234375 -267.72265625 249.234375 C-267.39265625 248.244375 -267.06265625 247.254375 -266.72265625 246.234375 C-266.06265625 246.234375 -265.40265625 246.234375 -264.72265625 246.234375 C-264.46196854 245.64804291 -264.20128082 245.06171082 -263.93269348 244.45761108 C-262.64511825 242.09191221 -261.27453512 240.55139076 -259.36206055 238.66259766 C-258.67762375 237.98153961 -257.99318695 237.30048157 -257.28800964 236.5987854 C-256.54843521 235.87267059 -255.80886078 235.14655579 -255.046875 234.3984375 C-254.28470169 233.64146576 -253.52252838 232.88449402 -252.73725891 232.10458374 C-250.29958858 229.68471959 -247.85535429 227.27163055 -245.41015625 224.859375 C-242.97651512 222.45343541 -240.54437311 220.04602904 -238.1151886 217.6355896 C-236.60429727 216.13686034 -235.09074059 214.64081182 -233.57414246 213.14785767 C-230.54579617 210.14801414 -227.58936339 207.16353024 -224.88598633 203.86474609 C-222.71167658 201.22102493 -220.40616633 199.33766668 -217.72265625 197.234375 C-217.06265625 196.244375 -216.40265625 195.254375 -215.72265625 194.234375 C-214.93890625 193.80125 -214.15515625 193.368125 -213.34765625 192.921875 C-210.09741066 190.83243141 -208.79464238 188.47185332 -206.72265625 185.234375 C-205.08176429 183.53444671 -203.41421754 181.88296374 -201.72265625 180.234375 C-200.23748016 178.75723631 -198.75384339 177.27854925 -197.27124023 175.79882812 C-196.42363632 174.9544519 -195.57603241 174.11007568 -194.70274353 173.2401123 C-191.36697 169.91593741 -188.03304383 166.58991527 -184.6997366 163.26326752 C-182.17492251 160.74368277 -179.64917454 158.22504866 -177.12133789 155.70849609 C-174.66244738 153.26050488 -172.20603886 150.81004785 -169.7512989 148.3578949 C-168.37044407 146.97976636 -166.98705737 145.60417618 -165.60362244 144.2286377 C-164.75917068 143.38426147 -163.91471893 142.53988525 -163.04467773 141.66992188 C-162.30475082 140.93221558 -161.56482391 140.19450928 -160.80247498 139.43444824 C-158.64755325 137.22266419 -158.64755325 137.22266419 -156.64002991 134.57824707 C-154.72265625 132.234375 -154.72265625 132.234375 -151.72265625 130.296875 C-148.36493014 127.9884383 -146.92626049 125.61323484 -144.72265625 122.234375 C-143.40518301 121.53688917 -142.07351432 120.86477543 -140.72265625 120.234375 C-140.35515259 119.41211426 -140.35515259 119.41211426 -139.98022461 118.57324219 C-138.14569903 115.16133091 -135.44392927 112.65052834 -132.7265625 109.9375 C-132.1372142 109.34386658 -131.54786591 108.75023315 -130.94065857 108.13861084 C-129.69663241 106.88885383 -128.44999343 105.64169293 -127.20092773 104.39697266 C-125.28672318 102.48593933 -123.38624984 100.56194 -121.48632812 98.63671875 C-120.2755505 97.42366923 -119.06398844 96.21140206 -117.8515625 95 C-117.28272842 94.42195618 -116.71389435 93.84391235 -116.12782288 93.24835205 C-112.06646168 89.234375 -112.06646168 89.234375 -108.72265625 89.234375 C-108.72265625 89.894375 -108.72265625 90.554375 -108.72265625 91.234375 C-107.51609375 91.5128125 -107.51609375 91.5128125 -106.28515625 91.796875 C-102.97186052 93.13381889 -101.12737592 94.38316169 -98.41015625 96.609375 C-94.14328359 100.08527977 -89.84693892 102.28399791 -84.72265625 104.234375 C-84.72265625 104.894375 -84.72265625 105.554375 -84.72265625 106.234375 C-81.75265625 107.224375 -78.78265625 108.214375 -75.72265625 109.234375 C-75.72265625 109.894375 -75.72265625 110.554375 -75.72265625 111.234375 C-75.14515625 111.3375 -74.56765625 111.440625 -73.97265625 111.546875 C-71.39257755 112.33523238 -69.86813349 113.62526707 -67.72265625 115.234375 C-65.57531698 115.93952346 -65.57531698 115.93952346 -63.72265625 116.234375 C-63.72265625 116.894375 -63.72265625 117.554375 -63.72265625 118.234375 C-62.73265625 118.234375 -61.74265625 118.234375 -60.72265625 118.234375 C-60.47427002 118.83886475 -60.22588379 119.44335449 -59.9699707 120.06616211 C-58.5131751 122.59851712 -57.26391718 123.44886217 -54.765625 124.92578125 C-53.5909668 125.63057617 -53.5909668 125.63057617 -52.39257812 126.34960938 C-51.57337891 126.82720703 -50.75417969 127.30480469 -49.91015625 127.796875 C-49.10255859 128.27833984 -48.29496094 128.75980469 -47.46289062 129.25585938 C-45.2211051 130.59064895 -42.97274676 131.91365218 -40.72265625 133.234375 C-37.10143442 135.39458514 -33.49420007 137.57543954 -29.91015625 139.796875 C-28.93433594 140.39628906 -27.95851563 140.99570313 -26.953125 141.61328125 C-26.21707031 142.14824219 -25.48101562 142.68320313 -24.72265625 143.234375 C-24.72265625 143.894375 -24.72265625 144.554375 -24.72265625 145.234375 C-23.63984375 145.3890625 -23.63984375 145.3890625 -22.53515625 145.546875 C-19.47230508 146.29557195 -17.37835262 147.56954349 -14.72265625 149.234375 C-14.71309952 133.41370459 -14.7377068 117.59347973 -14.80293465 101.77296162 C-14.8324259 94.42709746 -14.85075649 87.08152261 -14.84277344 79.7355957 C-14.83584334 73.33249052 -14.84989443 66.92983309 -14.88909233 60.526838 C-14.90911497 57.13664657 -14.91866266 53.74715816 -14.90307999 50.35692787 C-14.89095364 46.57098636 -14.91590937 42.78699157 -14.94970703 39.0012207 C-14.93137566 37.31700012 -14.93137566 37.31700012 -14.91267395 35.59875488 C-14.86880443 30.19679161 -14.86880443 30.19679161 -17.02130699 25.42307568 C-20.04972201 22.79296029 -22.70364256 21.60487527 -26.68359375 21.52734375 C-27.56660156 21.49833984 -28.44960938 21.46933594 -29.359375 21.43945312 C-30.26300781 21.43365234 -31.16664063 21.42785156 -32.09765625 21.421875 C-33.48791016 21.38416992 -33.48791016 21.38416992 -34.90625 21.34570312 C-37.17881266 21.28713192 -39.44946303 21.25063487 -41.72265625 21.234375 C-39.91568928 17.25121561 -38.32246454 14.48037457 -34.91015625 11.734375 C-32.24093798 9.52723135 -29.74354182 7.29872111 -27.34765625 4.796875 C-24.72265625 2.234375 -24.72265625 2.234375 -22.72265625 2.234375 C-22.72265625 1.574375 -22.72265625 0.914375 -22.72265625 0.234375 C-16.01891754 -2.00020457 -6.83740335 -1.92271314 0 0 Z " fill="#07090A" transform="translate(470.72265625,101.765625)"/>
<path d="M0 0 C1.63859171 -0.00512655 1.63859171 -0.00512655 3.31028628 -0.01035666 C6.9354653 -0.01689463 10.55988788 0.00497348 14.18499756 0.0269165 C16.79757164 0.02804586 19.41014699 0.0274094 22.02272034 0.02514648 C27.62929218 0.02305818 33.23567654 0.03551229 38.84220123 0.05809784 C46.9480685 0.09073043 55.05384594 0.1010363 63.15977177 0.10604981 C76.31390221 0.11478489 89.46793292 0.14135174 102.62200928 0.17926025 C115.39316309 0.21602675 128.16428973 0.24431575 140.93548584 0.2612915 C141.72388699 0.2623424 142.51228813 0.26339329 143.32458022 0.26447603 C147.28011132 0.26969652 151.23564261 0.27475127 155.19117403 0.27972364 C187.95969559 0.32113 220.7280949 0.39152947 253.496521 0.48101807 C253.496521 1.47101807 253.496521 2.46101807 253.496521 3.48101807 C252.0246443 4.72393617 250.54722206 5.96191654 249.02386475 7.14117432 C246.96770234 8.94491781 245.84304606 11.1245992 244.496521 13.48101807 C243.836521 13.48101807 243.176521 13.48101807 242.496521 13.48101807 C242.207771 14.07914307 241.919021 14.67726807 241.621521 15.29351807 C240.496521 17.48101807 240.496521 17.48101807 238.496521 20.48101807 C237.836521 20.48101807 237.176521 20.48101807 236.496521 20.48101807 C236.393396 21.24414307 236.290271 22.00726807 236.184021 22.79351807 C235.42557404 25.75835618 234.85721462 26.61913815 232.496521 28.48101807 C230.55643034 28.85657358 230.55643034 28.85657358 228.30950165 28.85739899 C227.0231692 28.86880865 227.0231692 28.86880865 225.71085024 28.88044882 C224.29710407 28.87010792 224.29710407 28.87010792 222.85479736 28.85955811 C221.35342201 28.8663533 221.35342201 28.8663533 219.82171583 28.87328577 C216.45211942 28.88495653 213.0829164 28.87524382 209.71331787 28.86578369 C207.30397789 28.8698866 204.89463989 28.87534579 202.48530579 28.88206482 C197.28952307 28.89381189 192.09381574 28.89660079 186.89802551 28.89170837 C179.38248244 28.88490854 171.86706516 28.89740287 164.35154456 28.91521555 C152.15427008 28.94387744 139.95700916 28.96138186 127.75970459 28.9697876 C126.66437881 28.97054837 126.66437881 28.97054837 125.54692525 28.9713245 C119.62172923 28.97535661 113.69653292 28.97885033 107.77133656 28.98232174 C102.59200332 28.98537899 97.41267029 28.98865118 92.2333374 28.99224854 C91.1393431 28.99300246 91.1393431 28.99300246 90.0232479 28.99377161 C77.87208907 29.00250885 65.72097693 29.02293102 53.56984949 29.05173063 C46.07113704 29.06893303 38.57255652 29.07548548 31.07382691 29.06842458 C25.33228026 29.06376044 19.59084016 29.07416206 13.84931755 29.09017372 C11.48979432 29.09419179 9.13025595 29.09302532 6.7707386 29.08640099 C3.55970811 29.07807578 0.34924074 29.08794512 -2.86175537 29.10247803 C-3.80425282 29.09558409 -4.74675027 29.08869016 -5.71780825 29.08158731 C-7.00414069 29.09299698 -7.00414069 29.09299698 -8.31645966 29.10463715 C-9.05794612 29.10490953 -9.79943259 29.10518191 -10.56338835 29.10546255 C-13.08070158 29.59275466 -13.94018152 30.48127389 -15.503479 32.48101807 C-15.833479 33.47101807 -16.163479 34.46101807 -16.503479 35.48101807 C-17.163479 35.48101807 -17.823479 35.48101807 -18.503479 35.48101807 C-18.503479 82.01101807 -18.503479 128.54101807 -18.503479 176.48101807 C-12.92083882 174.15671153 -12.92083882 174.15671153 -11.065979 171.85601807 C-8.5600756 169.65082307 -5.73015573 169.78542153 -2.503479 169.48101807 C-2.503479 168.82101807 -2.503479 168.16101807 -2.503479 167.48101807 C-0.853479 167.15101807 0.796521 166.82101807 2.496521 166.48101807 C2.517146 165.88289307 2.537771 165.28476807 2.559021 164.66851807 C3.496521 162.48101807 3.496521 162.48101807 6.621521 161.04351807 C7.2505835 160.80890869 7.879646 160.57429932 8.527771 160.33258057 C11.28198862 159.14127215 13.47992472 157.40079178 15.86761475 155.60601807 C17.496521 154.48101807 17.496521 154.48101807 20.184021 153.41851807 C22.66661951 152.58691454 22.66661951 152.58691454 24.621521 150.35601807 C25.549646 149.42789307 25.549646 149.42789307 26.496521 148.48101807 C27.486521 148.48101807 28.476521 148.48101807 29.496521 148.48101807 C29.496521 147.82101807 29.496521 147.16101807 29.496521 146.48101807 C33.951521 145.49101807 33.951521 145.49101807 38.496521 144.48101807 C38.496521 143.82101807 38.496521 143.16101807 38.496521 142.48101807 C39.857771 141.86226807 39.857771 141.86226807 41.246521 141.23101807 C44.50310907 139.69842466 44.50310907 139.69842466 46.496521 137.35601807 C49.06016739 134.95259957 51.05923318 134.79349878 54.496521 134.48101807 C54.496521 133.82101807 54.496521 133.16101807 54.496521 132.48101807 C55.074021 132.23351807 55.651521 131.98601807 56.246521 131.73101807 C58.6140573 130.57282842 58.6140573 130.57282842 60.371521 128.41851807 C63.14395898 125.89070696 64.75120757 125.4045831 68.496521 125.48101807 C70.934021 127.66851807 70.934021 127.66851807 73.496521 130.48101807 C75.10232888 131.39862257 76.71118663 132.3119289 78.34417725 133.18023682 C81.23238296 134.92574045 83.82695913 136.98052331 86.496521 139.04351807 C90.72803522 142.27562943 94.46467307 144.76561537 99.496521 146.48101807 C99.496521 147.14101807 99.496521 147.80101807 99.496521 148.48101807 C101.146521 149.14101807 102.796521 149.80101807 104.496521 150.48101807 C103.93163416 153.95638145 102.94856452 155.28080418 100.215271 157.44976807 C96.45562967 160.59285502 92.97368561 163.91029953 89.527771 167.38726807 C88.73451416 168.18560059 88.73451416 168.18560059 87.92523193 169.00006104 C86.28026366 170.65835088 84.63796075 172.31923589 82.996521 173.98101807 C80.82249326 176.1819886 78.64493034 178.37937595 76.465271 180.57476807 C75.98481323 181.06352417 75.50435547 181.55228027 75.00933838 182.05584717 C72.3195917 184.76433455 69.55321861 187.32431014 66.66009521 189.81524658 C62.19494127 193.68401046 58.05429838 197.83185375 53.9105835 202.03961182 C52.30524339 203.65757801 50.69977091 205.27541287 49.09417725 206.89312744 C46.59049267 209.42178457 44.08844872 211.9520271 41.58880615 214.48468018 C39.15870314 216.94479905 36.72257103 219.39881539 34.2855835 221.85211182 C33.15752792 223.00035683 33.15752792 223.00035683 32.00668335 224.17179871 C30.96452164 225.21902855 30.96452164 225.21902855 29.90130615 226.28741455 C29.29034088 226.90583725 28.67937561 227.52425995 28.04989624 228.16142273 C26.496521 229.48101807 26.496521 229.48101807 24.496521 229.48101807 C24.166521 230.47101807 23.836521 231.46101807 23.496521 232.48101807 C22.836521 232.48101807 22.176521 232.48101807 21.496521 232.48101807 C21.269646 233.03789307 21.042771 233.59476807 20.809021 234.16851807 C18.54051651 238.16540693 15.87752154 241.02068455 11.496521 242.48101807 C11.166521 243.47101807 10.836521 244.46101807 10.496521 245.48101807 C8.83863314 246.82525146 7.17075782 248.1572029 5.496521 249.48101807 C4.898396 250.24414307 4.300271 251.00726807 3.684021 251.79351807 C0.67161286 255.49447663 -2.87771404 258.39742356 -6.503479 261.48101807 C-7.14156494 262.057229 -7.77965088 262.63343994 -8.43707275 263.22711182 C-9.03648682 263.76465088 -9.63590088 264.30218994 -10.253479 264.85601807 C-11.05011963 265.57918213 -11.05011963 265.57918213 -11.862854 266.31695557 C-15.82942367 269.13133119 -20.81490539 268.88024315 -25.503479 268.48101807 C-28.503479 267.48101807 -28.503479 267.48101807 -30.503479 266.48101807 C-30.503479 265.82101807 -30.503479 265.16101807 -30.503479 264.48101807 C-31.8337915 264.17164307 -31.8337915 264.17164307 -33.190979 263.85601807 C-37.81672112 261.9358987 -39.87569386 258.88638654 -42.62781048 254.81960011 C-43.96211004 251.25618667 -43.78159285 247.69320563 -43.76417542 243.93870544 C-43.76800096 243.06790747 -43.77182651 242.1971095 -43.77576798 241.29992372 C-43.78610294 238.37609658 -43.78210474 235.45246566 -43.77813721 232.52862549 C-43.78248371 230.43417173 -43.78766665 228.33971957 -43.79362488 226.24526978 C-43.80704067 220.54838232 -43.8075901 214.85156112 -43.80506158 209.15466094 C-43.80399245 204.39397978 -43.80887437 199.63331205 -43.813667 194.87263376 C-43.8247736 183.63018722 -43.82519476 172.38777408 -43.81915283 161.14532471 C-43.81312714 149.5700294 -43.82538564 137.99485608 -43.8467229 126.41958159 C-43.86438471 116.47029638 -43.87033259 106.52104981 -43.86708516 96.57174951 C-43.8652776 90.63507642 -43.86785461 84.69849011 -43.8817997 78.76183128 C-43.89444598 73.16808055 -43.89236995 67.5745182 -43.87938881 61.98077011 C-43.87703727 59.93750633 -43.87970611 57.89422902 -43.88801193 55.85098076 C-44.00584322 24.58632417 -44.00584322 24.58632417 -34.503479 14.48101807 C-33.66769987 13.39957052 -32.83421981 12.31634073 -32.003479 11.23101807 C-23.68593725 2.08172214 -11.88806444 -0.13904791 0 0 Z " fill="#0B0C0E" transform="translate(105.50347900390625,93.51898193359375)"/>
<path d="M0 0 C5.27435541 4.35707621 10.08468379 9.03009718 14.86328125 13.92578125 C16.8234843 16.03762292 16.8234843 16.03762292 19 17 C18.43536557 20.4854325 17.43743624 21.81426182 14.69921875 23.9921875 C11.00410206 27.08174995 7.54323878 30.34849098 4.14453125 33.7578125 C3.63074921 34.27261169 3.11696716 34.78741089 2.58761597 35.31781006 C0.99392789 36.91824857 -0.59685921 38.52153341 -2.1875 40.125 C-3.26473707 41.20726709 -4.34220961 42.28929986 -5.41992188 43.37109375 C-7.40014254 45.35940254 -9.37872012 47.34929366 -11.35620117 49.34033203 C-13.12424539 51.11898875 -14.90053791 52.88948284 -16.68481445 54.65185547 C-19.11505195 57.04343894 -19.11505195 57.04343894 -21.5 60.0625 C-23.82645453 62.79608408 -26.18913344 64.79688837 -29 67 C-29.66 67.99 -30.32 68.98 -31 70 C-31.66 70 -32.32 70 -33 70 C-33.0928125 70.8971875 -33.0928125 70.8971875 -33.1875 71.8125 C-34.32434588 74.8732389 -36.2127103 75.43639846 -39 77 C-39.66 77.99 -40.32 78.98 -41 80 C-41.66 80 -42.32 80 -43 80 C-43.33 80.99 -43.66 81.98 -44 83 C-44.66 83 -45.32 83 -46 83 C-46.33 83.99 -46.66 84.98 -47 86 C-48.62102968 87.71108689 -50.29503463 89.37253306 -52 91 C-53.66918056 92.66414898 -55.3354085 94.33126075 -57 96 C-58.02410595 97.02247971 -59.04853785 98.04463303 -60.07324219 99.06651306 C-60.62822388 99.62004959 -61.18320557 100.17358612 -61.75500488 100.74389648 C-62.34632202 101.33364258 -62.93763916 101.92338867 -63.546875 102.53100586 C-70.02262719 108.99041394 -76.49582875 115.45237192 -82.96759033 121.91577816 C-86.87681141 125.81977262 -90.78696555 129.72282319 -94.69921875 133.6237793 C-98.49377974 137.40745693 -102.28587612 141.1935887 -106.07629395 144.9814167 C-107.51705736 146.42033815 -108.95869794 147.85838188 -110.40124512 149.29551506 C-112.42088778 151.3078731 -114.43735313 153.32336523 -116.453125 155.33959961 C-117.04444214 155.92732147 -117.63575928 156.51504333 -118.24499512 157.12057495 C-120.87410736 159.75619938 -123.39126868 162.41174605 -125.75292969 165.29127502 C-127.97550896 167.97047734 -130.29235151 169.83388121 -133 172 C-133.91593532 173.06639156 -134.81153061 174.15054282 -135.6875 175.25 C-136.8321875 176.61125 -136.8321875 176.61125 -138 178 C-138.66 178 -139.32 178 -140 178 C-140 178.66 -140 179.32 -140 180 C-141.46190139 181.22932617 -142.92797383 182.45429691 -144.421875 183.64453125 C-146.18818536 185.07692638 -146.18818536 185.07692638 -148 187.5 C-150.36043197 190.45053996 -153.10151737 192.58459781 -156 195 C-157.35827971 196.64639965 -158.69254251 198.31295807 -160 200 C-161.65316776 201.68005712 -163.32245318 203.34428498 -165 205 C-166.00195365 205.9984973 -167.00327178 206.99763262 -168.00404358 207.99731445 C-169.12906239 209.11932022 -170.25409901 210.24130814 -171.37915039 211.36328125 C-177.66730678 217.63510769 -183.9529241 223.90947244 -190.23709965 230.18528748 C-194.03312999 233.97608771 -197.83009478 237.76594237 -201.62915039 241.55371094 C-205.31347578 245.22716394 -208.99534622 248.90306114 -212.6755352 252.58065796 C-214.0752598 253.9785387 -215.47586247 255.3755408 -216.87736702 256.77163696 C-218.837335 258.72433492 -220.79413989 260.68015138 -222.75024414 262.63671875 C-223.32645508 263.20933441 -223.90266602 263.78195007 -224.49633789 264.37191772 C-227.55444339 267.43785489 -230.34164863 270.57166573 -233 274 C-235.125 276.3125 -235.125 276.3125 -237 278 C-237.66 278 -238.32 278 -239 278 C-239 278.66 -239 279.32 -239 280 C-240.45972959 281.22749989 -241.92339328 282.450889 -243.4140625 283.640625 C-245.60321186 285.51703874 -247.24616948 287.72002033 -249 290 C-251.125 292.3125 -251.125 292.3125 -253 294 C-253.66 294 -254.32 294 -255 294 C-255.226875 294.721875 -255.45375 295.44375 -255.6875 296.1875 C-257.87174274 300.86802016 -261.7121077 304.19069125 -266 307 C-266.66 307 -267.32 307 -268 307 C-268.33 307.99 -268.66 308.98 -269 310 C-269.66 310 -270.32 310 -271 310 C-271.33 310.99 -271.66 311.98 -272 313 C-272.66 313 -273.32 313 -274 313 C-274.33 313.99 -274.66 314.98 -275 316 C-276.65002828 317.35386936 -278.3174387 318.68678142 -280 320 C-280.66 320.99 -281.32 321.98 -282 323 C-282.66 323 -283.32 323 -284 323 C-284.33 323.99 -284.66 324.98 -285 326 C-285.66 326 -286.32 326 -287 326 C-287.24110001 326.56543518 -287.48220001 327.13087036 -287.73060608 327.71343994 C-289.25848715 330.46561306 -291.08993979 332.35158147 -293.31030273 334.58496094 C-294.64695229 335.93590851 -294.64695229 335.93590851 -296.01060486 337.31414795 C-296.98460496 338.2878867 -297.95894273 339.26128778 -298.93359375 340.234375 C-299.93268018 341.23734941 -300.93154275 342.24054686 -301.93019104 343.24395752 C-304.02078628 345.34200344 -306.11520098 347.43614557 -308.2121582 349.52783203 C-310.9019399 352.2118036 -313.58015044 354.90700339 -316.25541592 357.60543442 C-318.31336708 359.67809334 -320.37817764 361.74380952 -322.44505501 363.80756378 C-323.435793 364.79881592 -324.42416279 365.79244081 -325.41012383 366.78844452 C-326.78635434 368.17697125 -328.17308766 369.55506457 -329.56030273 370.93261719 C-330.34702866 371.71997253 -331.13375458 372.50732788 -331.94432068 373.31854248 C-334 375 -334 375 -337 375 C-337.07943848 375.56984619 -337.15887695 376.13969238 -337.24072266 376.72680664 C-338.24991693 379.74822396 -339.85906656 381.16609824 -342.1484375 383.37109375 C-342.98890625 384.19287109 -343.829375 385.01464844 -344.6953125 385.86132812 C-345.57960938 386.71146484 -346.46390625 387.56160156 -347.375 388.4375 C-349.11660624 390.11891838 -350.85375711 391.80496657 -352.5859375 393.49609375 C-353.3598584 394.24044678 -354.1337793 394.9847998 -354.93115234 395.75170898 C-357.02435215 398.02646436 -358.51016523 400.29993448 -360 403 C-361.6875 402.875 -361.6875 402.875 -364 402 C-365.69088222 400.02043058 -367.35830472 398.02054804 -369 396 C-369.99 395.67 -370.98 395.34 -372 395 C-373.21274073 393.29560763 -374.42190228 391.58823138 -375.59375 389.85546875 C-377.71433378 387.05747627 -380.22243567 385.13161913 -383 383 C-382.77429903 379.05023297 -382.09405894 378.08405267 -379.0625 375.375 C-377.5465625 374.199375 -377.5465625 374.199375 -376 373 C-375.34 372.01 -374.68 371.02 -374 370 C-373.21658517 369.53350729 -372.43317034 369.06701458 -371.62601566 368.58638573 C-368.79588351 366.87669248 -367.12247505 365.12693768 -364.98374939 362.61782837 C-359.33638003 356.18120875 -353.3134881 350.16532178 -347.26000977 344.11474609 C-346.0006624 342.85240005 -344.74151799 341.5898515 -343.4825592 340.32711792 C-340.09291417 336.92871162 -336.70010142 333.53348568 -333.30639386 330.13913679 C-331.18526425 328.01729343 -329.06484944 325.89473843 -326.94468498 323.77193069 C-319.54677673 316.36480288 -312.14632249 308.96023002 -304.7434082 301.55810547 C-297.84098368 294.65628437 -290.94418622 287.74887494 -284.04993588 280.83888948 C-278.12296639 274.89887436 -272.19217847 268.96269041 -266.25836223 263.02951491 C-262.71706078 259.48846885 -259.17734209 255.94587467 -255.64145088 252.39942551 C-252.32567904 249.07402014 -249.00520432 245.75338586 -245.6809597 242.43645096 C-244.45933352 241.21587579 -243.23942997 239.99357384 -242.02133942 238.76947021 C-240.3652221 237.10570431 -238.70313784 235.44814537 -237.0393219 233.79208374 C-236.10893884 232.86115591 -235.17855577 231.93022808 -234.21997929 230.97109032 C-232 229 -232 229 -230 229 C-229.7628125 228.43796875 -229.525625 227.8759375 -229.28125 227.296875 C-227.71052303 224.48105958 -225.78528536 222.52044584 -223.5 220.25 C-222.30890625 219.05117188 -222.30890625 219.05117188 -221.09375 217.828125 C-219 216 -219 216 -217 216 C-216.67 215.01 -216.34 214.02 -216 213 C-215.34 213 -214.68 213 -214 213 C-213.67 212.01 -213.34 211.02 -213 210 C-212.34 210 -211.68 210 -211 210 C-210.67 209.01 -210.34 208.02 -210 207 C-209.34 207 -208.68 207 -208 207 C-207.731875 206.401875 -207.46375 205.80375 -207.1875 205.1875 C-206.00082594 203.00152146 -204.90400887 201.58667406 -203 200 C-202.34 200 -201.68 200 -201 200 C-200.67 199.01 -200.34 198.02 -200 197 C-199.34 197 -198.68 197 -198 197 C-197.67 196.01 -197.34 195.02 -197 194 C-196.34 194 -195.68 194 -195 194 C-194.67 193.01 -194.34 192.02 -194 191 C-192.0625 188.8125 -192.0625 188.8125 -190 187 C-189.34 187 -188.68 187 -188 187 C-187.67 186.01 -187.34 185.02 -187 184 C-186.34 184 -185.68 184 -185 184 C-184.67 183.01 -184.34 182.02 -184 181 C-183.34 181 -182.68 181 -182 181 C-181.67 180.01 -181.34 179.02 -181 178 C-180.34 178 -179.68 178 -179 178 C-178.67 177.01 -178.34 176.02 -178 175 C-176.0625 172.8125 -176.0625 172.8125 -174 171 C-173.34 171 -172.68 171 -172 171 C-171.67 170.01 -171.34 169.02 -171 168 C-170.34 168 -169.68 168 -169 168 C-168.67 167.01 -168.34 166.02 -168 165 C-167.34 165 -166.68 165 -166 165 C-165.67 164.01 -165.34 163.02 -165 162 C-164.34 162 -163.68 162 -163 162 C-162.67 161.01 -162.34 160.02 -162 159 C-160.34997172 157.64613064 -158.6825613 156.31321858 -157 155 C-156.34 154.01 -155.68 153.02 -155 152 C-154.34 152 -153.68 152 -153 152 C-152.67 151.01 -152.34 150.02 -152 149 C-151.34 149 -150.68 149 -150 149 C-149.67 148.01 -149.34 147.02 -149 146 C-147.36739286 144.62517293 -145.69774938 143.29352333 -144 142 C-143.46375 141.46375 -142.9275 140.9275 -142.375 140.375 C-141 139 -141 139 -138 137 C-137.71125 136.38125 -137.4225 135.7625 -137.125 135.125 C-135.62694545 132.29534141 -133.50611431 130.96908982 -131 129 C-130.401875 128.236875 -129.80375 127.47375 -129.1875 126.6875 C-126.74453548 123.68614359 -124.04900227 121.33156454 -121.09765625 118.84375 C-118.61830905 116.66451 -116.32694737 114.34200936 -114 112 C-113.01951764 111.01494707 -112.03899108 110.02993813 -111.0584259 109.04496765 C-109.96315002 107.94366945 -108.86791185 106.84233373 -107.77270508 105.7409668 C-101.6666395 99.602329 -95.55556796 93.46870037 -89.44157887 87.33795452 C-85.74690097 83.63279024 -82.05413605 79.92575823 -78.36547852 76.21459961 C-74.79144727 72.61891296 -71.21261862 69.02806754 -67.6303463 65.44059181 C-66.26538861 64.07193037 -64.90219639 62.70150596 -63.54078102 61.32932091 C-61.64480956 59.41892837 -59.74277034 57.51478826 -57.83911133 55.61206055 C-57.27441132 55.04016998 -56.7097113 54.46827942 -56.12789917 53.87905884 C-52.2281099 50 -52.2281099 50 -50 50 C-49.79221924 49.46624756 -49.58443848 48.93249512 -49.37036133 48.38256836 C-47.45178921 45.04685745 -44.79846343 42.55334222 -42.07421875 39.87890625 C-41.4896138 39.2971312 -40.90500885 38.71535614 -40.3026886 38.11595154 C-38.43561298 36.26004158 -36.56171566 34.41119648 -34.6875 32.5625 C-33.4376908 31.32272942 -32.18833682 30.08249975 -30.93945312 28.84179688 C-28.12191827 26.04417658 -25.29921569 23.25185633 -22.47450256 20.46148682 C-21.04883857 19.04840746 -19.63096253 17.62748416 -18.21337891 16.20629883 C-16.42196489 14.42061512 -14.62321324 12.74850143 -12.6875 11.125 C-9.98027609 8.83427208 -7.29422722 6.52247695 -4.625 4.1875 C-3.62339844 3.31158203 -3.62339844 3.31158203 -2.6015625 2.41796875 C-1.7151512 1.63317045 -0.83714795 0.83714795 0 0 Z " fill="#090B0C" transform="translate(452,32)"/>
<path d="M0 0 C6.56198801 4.17581055 11.92941544 8.83838694 14.3203125 16.4765625 C15.35680052 25.36853869 15.18815729 33.65324051 10.3203125 41.4765625 C9.6603125 41.4765625 9.0003125 41.4765625 8.3203125 41.4765625 C8.0521875 42.0334375 7.7840625 42.5903125 7.5078125 43.1640625 C7.1159375 43.9271875 6.7240625 44.6903125 6.3203125 45.4765625 C5.8871875 46.3634375 5.4540625 47.2503125 5.0078125 48.1640625 C3.3203125 50.4765625 3.3203125 50.4765625 0.6328125 51.2890625 C-0.1303125 51.3509375 -0.8934375 51.4128125 -1.6796875 51.4765625 C-1.6796875 52.1365625 -1.6796875 52.7965625 -1.6796875 53.4765625 C-5.69202247 54.41707202 -9.49942145 54.67291083 -13.6171875 54.7265625 C-15.39416016 54.76523438 -15.39416016 54.76523438 -17.20703125 54.8046875 C-20.9996597 54.44632891 -23.40769294 53.37481889 -26.6796875 51.4765625 C-26.6796875 50.8165625 -26.6796875 50.1565625 -26.6796875 49.4765625 C-27.5459375 49.2496875 -28.4121875 49.0228125 -29.3046875 48.7890625 C-34.31248102 46.84158724 -37.43573051 44.82241967 -39.9453125 40.08984375 C-43.96311658 30.17265832 -43.70142929 21.87720235 -39.84765625 11.984375 C-37.27665903 6.46403983 -35.15074532 2.53986617 -29.45703125 0.08984375 C-18.71017245 -3.69158858 -10.37523091 -5.82183803 0 0 Z " fill="#0B0D0E" transform="translate(216.6796875,154.5234375)"/>
<path d="M0 0 C0.66 0.33 1.32 0.66 2 1 C1.67 1.33 1.34 1.66 1 2 C92.08 2 183.16 2 277 2 C276.34 2.99 275.68 3.98 275 5 C272.9754709 5.37259549 272.9754709 5.37259549 270.42789268 5.36914349 C269.45901001 5.37511663 268.49012734 5.38108978 267.49188459 5.38724393 C266.41991759 5.3785054 265.3479506 5.36976688 264.24349976 5.36076355 C263.1106469 5.36332682 261.97779405 5.3658901 260.81061232 5.36853105 C256.98867147 5.3734993 253.16711972 5.35692564 249.34521484 5.34057617 C246.61588794 5.33806311 243.88656881 5.34007144 241.15724182 5.34190369 C235.26787614 5.34347912 229.37860992 5.33404178 223.48926926 5.31719017 C214.97421762 5.29284123 206.45921424 5.28499912 197.94413157 5.2812262 C184.1300448 5.27465525 170.31601108 5.25467667 156.50195312 5.22631836 C143.08040635 5.19879441 129.65887397 5.1775527 116.23730469 5.16479492 C114.9969962 5.16361267 114.9969962 5.16361267 113.73163097 5.16240653 C109.58358459 5.1584915 105.43553811 5.15470036 101.28749156 5.15097082 C66.85828952 5.11985488 32.42915047 5.06700162 -2 5 C-1.125 1.125 -1.125 1.125 0 0 Z " fill="#B3B5B6" transform="translate(194,358)"/>
<path d="M0 0 C0.33 0.66 0.66 1.32 1 2 C0.67 2.66 0.34 3.32 0 4 C-0.66 4 -1.32 4 -2 4 C-2 5.32 -2 6.64 -2 8 C86.44 8.33 174.88 8.66 266 9 C266 9.33 266 9.66 266 10 C175.91 10 85.82 10 -7 10 C-4 4 -4 4 -1 3 C-0.67 2.01 -0.34 1.02 0 0 Z " fill="#232527" transform="translate(201,351)"/>
<path d="M0 0 C0.66 0.33 1.32 0.66 2 1 C-0.53124546 5.86013004 -4.05390149 9.34358589 -7.8984375 13.1640625 C-8.57041168 13.83795013 -9.24238586 14.51183777 -9.9347229 15.20614624 C-11.35278707 16.6255677 -12.7733653 18.04248141 -14.19628906 19.45703125 C-16.36756595 21.6176026 -18.52797433 23.78862776 -20.6875 25.9609375 C-22.06967171 27.34178753 -23.45246373 28.722017 -24.8359375 30.1015625 C-25.47880707 30.74848053 -26.12167664 31.39539856 -26.7840271 32.06192017 C-30.01218416 35.25674621 -33.01135607 37.76809977 -37 40 C-38.77058073 41.50165903 -38.77058073 41.50165903 -40.33203125 43.13671875 C-40.90244141 43.71357422 -41.47285156 44.29042969 -42.06054688 44.88476562 C-42.92776367 45.77711914 -42.92776367 45.77711914 -43.8125 46.6875 C-44.40998047 47.29400391 -45.00746094 47.90050781 -45.62304688 48.52539062 C-47.08664185 50.01240312 -48.54396102 51.50558811 -50 53 C-50.66 52.67 -51.32 52.34 -52 52 C-49.05226582 49.00292183 -46.09808792 46.01239506 -43.13769531 43.02783203 C-42.13100272 42.01106601 -41.12611034 40.99251438 -40.12304688 39.97216797 C-38.68305629 38.50798782 -37.23676744 37.05029795 -35.7890625 35.59375 C-34.91975098 34.71396484 -34.05043945 33.83417969 -33.15478516 32.92773438 C-31 31 -31 31 -29 31 C-28.79584473 30.46987305 -28.59168945 29.93974609 -28.38134766 29.39355469 C-26.41603509 25.98812443 -23.68177691 23.43695083 -20.8984375 20.703125 C-20.30197418 20.10949158 -19.70551086 19.51585815 -19.0909729 18.90423584 C-17.1903019 17.01473373 -15.28278526 15.13231608 -13.375 13.25 C-12.08287532 11.96790935 -10.79120324 10.68536239 -9.5 9.40234375 C-6.33855521 6.26291568 -3.1709539 3.12982199 0 0 Z " fill="#464747" transform="translate(431,51)"/>
<path d="M0 0 C0.66 0.33 1.32 0.66 2 1 C1.34 2.32 0.68 3.64 0 5 C-0.99 5 -1.98 5 -3 5 C-3 5.99 -3 6.98 -3 8 C-3.99 8 -4.98 8 -6 8 C-6.15984375 8.80953125 -6.3196875 9.6190625 -6.484375 10.453125 C-8.68401037 15.6007253 -12.28982646 18.86969551 -16.25 22.75 C-17.00152344 23.51699219 -17.75304687 24.28398437 -18.52734375 25.07421875 C-22.41804708 28.93776184 -25.43477395 31.90113371 -31 33 C-26.10999323 27.15584557 -20.8877572 21.81732409 -15.4375 16.5 C-13.51573895 14.52896302 -11.75990474 12.54669881 -10 10.4375 C-7.57738393 7.55908246 -4.97450122 5.31350095 -2 3 C-1.34 2.01 -0.68 1.02 0 0 Z " fill="#BFC1C1" transform="translate(413,108)"/>
<path d="M0 0 C0 7.52672046 -6.80147677 12.16946753 -11.75 17.125 C-12.64460938 18.04410156 -13.53921875 18.96320313 -14.4609375 19.91015625 C-15.33492188 20.78800781 -16.20890625 21.66585937 -17.109375 22.5703125 C-17.90311523 23.37227051 -18.69685547 24.17422852 -19.51464844 25.00048828 C-22.25593584 27.20590516 -24.62345461 28.09375431 -28 29 C-22.61359076 22.44622903 -16.64114873 16.52753365 -10.625 10.5625 C-9.59221405 9.53474017 -8.55966009 8.50674715 -7.52734375 7.47851562 C-5.02089713 4.98298402 -2.5113292 2.49061918 0 0 Z " fill="#C3C5C5" transform="translate(381,141)"/>
<path d="M0 0 C0 3.69349436 -0.88153908 5.00493457 -3 8 C-5.26269201 9.98675396 -7.30832695 11.65416347 -10 13 C-10.4125 13.721875 -10.825 14.44375 -11.25 15.1875 C-13.45874347 18.7372663 -15.91303947 21.17575952 -19 24 C-19.66 24 -20.32 24 -21 24 C-21.28875 24.61875 -21.5775 25.2375 -21.875 25.875 C-23 28 -23 28 -25 30 C-25.99 29.34 -26.98 28.68 -28 28 C-18.76 18.76 -9.52 9.52 0 0 Z " fill="#3A3B3C" transform="translate(173,308)"/>
<path d="M0 0 C0.33 0.66 0.66 1.32 1 2 C0.67 2.66 0.34 3.32 0 4 C-0.66 4 -1.32 4 -2 4 C-2.103125 4.598125 -2.20625 5.19625 -2.3125 5.8125 C-3.10636936 8.33844795 -3.95572409 9.34885407 -6 11 C-6.99 11.33 -7.98 11.66 -9 12 C-9.495 12.845625 -9.99 13.69125 -10.5 14.5625 C-10.995 15.366875 -11.49 16.17125 -12 17 C-12.99 17 -13.98 17 -15 17 C-15.08894531 17.57492188 -15.17789063 18.14984375 -15.26953125 18.7421875 C-16.69319588 23.14260545 -20.5124748 26.11596277 -24 29 C-27.5 30.5 -27.5 30.5 -30 31 C-26.49925018 26.82556637 -23.02049157 22.6854506 -19 19 C-18.34 19 -17.68 19 -17 19 C-16.67 18.01 -16.34 17.02 -16 16 C-15.34 16 -14.68 16 -14 16 C-13.67 15.01 -13.34 14.02 -13 13 C-12.34 13 -11.68 13 -11 13 C-10.67 12.01 -10.34 11.02 -10 10 C-9.34 10 -8.68 10 -8 10 C-7.731875 9.401875 -7.46375 8.80375 -7.1875 8.1875 C-6.00082594 6.00152146 -4.90400887 4.58667406 -3 3 C-2.34 3 -1.68 3 -1 3 C-0.67 2.01 -0.34 1.02 0 0 Z " fill="#515353" transform="translate(252,229)"/>
<path d="M0 0 C1.17079102 -0.0309375 1.17079102 -0.0309375 2.36523438 -0.0625 C4.62890625 -0.078125 4.62890625 -0.078125 8.4375 0.25 C9.0975 1.24 9.7575 2.23 10.4375 3.25 C9.27992188 3.20359375 8.12234375 3.1571875 6.9296875 3.109375 C5.39065094 3.07183752 3.8515863 3.03543949 2.3125 3 C1.55195313 2.96648437 0.79140625 2.93296875 0.0078125 2.8984375 C-5.37545305 2.80562258 -8.29343711 3.69039121 -12.5625 7.25 C-14.67646128 9.34515379 -16.64954955 11.52005341 -18.6328125 13.73828125 C-20.5625 15.25 -20.5625 15.25 -22.8046875 14.98046875 C-23.38476562 14.73941406 -23.96484375 14.49835938 -24.5625 14.25 C-22.77677748 12.41052663 -20.98447551 10.57842259 -19.1875 8.75 C-18.67960937 8.22535156 -18.17171875 7.70070313 -17.6484375 7.16015625 C-16.32417396 5.81846819 -14.94644135 4.53004185 -13.5625 3.25 C-12.9025 3.25 -12.2425 3.25 -11.5625 3.25 C-11.5625 2.59 -11.5625 1.93 -11.5625 1.25 C-7.70223316 -0.03675561 -4.02337633 0.02671121 0 0 Z " fill="#595959" transform="translate(459.5625,100.75)"/>
<path d="M0 0 C0 3 0 3 -1.4609375 4.68359375 C-2.09257812 5.26238281 -2.72421875 5.84117187 -3.375 6.4375 C-5.98167608 8.83499837 -7.4344974 10.84875124 -9 14 C-11.125 14.75 -11.125 14.75 -13 15 C-13.08378906 15.57234375 -13.16757812 16.1446875 -13.25390625 16.734375 C-14.22073993 19.67030973 -15.73541623 21.09968312 -17.9375 23.25 C-18.64777344 23.95640625 -19.35804688 24.6628125 -20.08984375 25.390625 C-22 27 -22 27 -24 27 C-24.33 27.99 -24.66 28.98 -25 30 C-28.0625 31.6875 -28.0625 31.6875 -31 33 C-30.34 31.68 -29.68 30.36 -29 29 C-28.34 29 -27.68 29 -27 29 C-27 28.34 -27 27.68 -27 27 C-25.125 24.875 -25.125 24.875 -23 23 C-22.34 23 -21.68 23 -21 23 C-20.67 22.01 -20.34 21.02 -20 20 C-19.34 20 -18.68 20 -18 20 C-17.67 19.01 -17.34 18.02 -17 17 C-16.34 17 -15.68 17 -15 17 C-14.67 16.01 -14.34 15.02 -14 14 C-12.37275065 12.27104756 -10.7130063 10.64113191 -9 9 C-7.39314404 7.39852714 -5.78914241 5.79418696 -4.1875 4.1875 C-2.79166667 2.79166667 -1.39583333 1.39583333 0 0 Z " fill="#A2A4A5" transform="translate(339,183)"/>
<path d="M0 0 C0 0.66 0 1.32 0 2 C-0.70431152 2.42104004 -1.40862305 2.84208008 -2.13427734 3.27587891 C-5.50282198 5.30251566 -8.10325764 7.81588553 -10.8515625 10.5859375 C-11.66262955 11.39413437 -11.66262955 11.39413437 -12.49008179 12.21865845 C-13.62703181 13.35425313 -14.76148273 14.49235482 -15.89355469 15.6328125 C-17.61957211 17.36953843 -19.35599752 19.09533761 -21.09375 20.8203125 C-22.20116263 21.92904684 -23.30795464 23.03840148 -24.4140625 24.1484375 C-24.92973785 24.66006439 -25.44541321 25.17169128 -25.97671509 25.69882202 C-28.83997551 28.59936588 -31.00026302 31.45894259 -33 35 C-33.66 35.66 -34.32 36.32 -35 37 C-35.99 37 -36.98 37 -38 37 C-36.58226538 33.45566346 -35.32387762 32.66193881 -32 31 C-31.75241943 30.44924805 -31.50483887 29.89849609 -31.24975586 29.33105469 C-29.42120147 25.92042033 -26.71835897 23.41324395 -24.00390625 20.703125 C-23.41455795 20.10949158 -22.82520966 19.51585815 -22.21800232 18.90423584 C-20.97397616 17.65447883 -19.72733718 16.40731793 -18.47827148 15.16259766 C-16.56406693 13.25156433 -14.66359359 11.327565 -12.76367188 9.40234375 C-11.55289425 8.18929423 -10.34133219 6.97702706 -9.12890625 5.765625 C-8.56007217 5.18758118 -7.9912381 4.60953735 -7.40516663 4.01397705 C-3.34380543 0 -3.34380543 0 0 0 Z " fill="#737374" transform="translate(362,191)"/>
<path d="M0 0 C0.66 0.33 1.32 0.66 2 1 C1.34 2.32 0.68 3.64 0 5 C-0.66 5 -1.32 5 -2 5 C-2.226875 5.556875 -2.45375 6.11375 -2.6875 6.6875 C-4.37550036 9.66159588 -6.46676517 11.72008865 -9 14 C-9.66 14 -10.32 14 -11 14 C-11 14.66 -11 15.32 -11 16 C-12.375 17.625 -12.375 17.625 -14 19 C-14.66 19 -15.32 19 -16 19 C-16 19.66 -16 20.32 -16 21 C-17.32 20.67 -18.64 20.34 -20 20 C-19.01 19.67 -18.02 19.34 -17 19 C-16.67 18.01 -16.34 17.02 -16 16 C-14.0625 13.8125 -14.0625 13.8125 -12 12 C-11.34 12 -10.68 12 -10 12 C-9.67 11.01 -9.34 10.02 -9 9 C-8.34 9 -7.68 9 -7 9 C-6.67 8.01 -6.34 7.02 -6 6 C-5.34 6 -4.68 6 -4 6 C-3.67 5.01 -3.34 4.02 -3 3 C-2.34 3 -1.68 3 -1 3 C-0.67 2.01 -0.34 1.02 0 0 Z " fill="#484B4A" transform="translate(274,207)"/>
<path d="M0 0 C0.66 0.33 1.32 0.66 2 1 C0 4 0 4 -2.625 4.6875 C-3.800625 4.8421875 -3.800625 4.8421875 -5 5 C-5 5.66 -5 6.32 -5 7 C-9.15626368 8.00926479 -13.04365094 8.10239579 -17.3125 8.0625 C-18.56675781 8.05347656 -19.82101563 8.04445312 -21.11328125 8.03515625 C-22.06589844 8.02355469 -23.01851562 8.01195312 -24 8 C-24.33 7.34 -24.66 6.68 -25 6 C-24.18917969 5.97421875 -23.37835938 5.9484375 -22.54296875 5.921875 C-10.45020966 5.4301728 -10.45020966 5.4301728 0 0 Z " fill="#787979" transform="translate(220,201)"/>
<path d="M0 0 C0 3 0 3 -1.3125 4.375 C-1.869375 4.91125 -2.42625 5.4475 -3 6 C-3.391875 6.721875 -3.78375 7.44375 -4.1875 8.1875 C-7.05208671 12.63254834 -11.08192964 18.04922491 -16.25390625 19.734375 C-16.83011719 19.82203125 -17.40632813 19.9096875 -18 20 C-16.5735422 16.7413364 -14.83295838 14.5975146 -12.3046875 12.109375 C-11.23154297 11.04589844 -11.23154297 11.04589844 -10.13671875 9.9609375 C-9.39035156 9.23132813 -8.64398438 8.50171875 -7.875 7.75 C-7.12089844 7.00492187 -6.36679688 6.25984375 -5.58984375 5.4921875 C-3.73099228 3.6568658 -1.86762995 1.8263809 0 0 Z " fill="#ACACAE" transform="translate(112,412)"/>
<path d="M0 0 C0.33 1.32 0.66 2.64 1 4 C-0.83020314 6.33942497 -2.57015343 8.26791448 -4.6875 10.3125 C-5.23083984 10.87517578 -5.77417969 11.43785156 -6.33398438 12.01757812 C-7.94921875 13.61328125 -7.94921875 13.61328125 -11 16 C-12.32 15.67 -13.64 15.34 -15 15 C-10.05 10.05 -5.1 5.1 0 0 Z " fill="#3F3F3F" transform="translate(304,247)"/>
<path d="M0 0 C0.66 0.33 1.32 0.66 2 1 C-0.56929958 6.13859917 -4.5619534 10.39408714 -9 14 C-9.99 14 -10.98 14 -12 14 C-12 14.99 -12 15.98 -12 17 C-13.32 17.33 -14.64 17.66 -16 18 C-16 16 -16 16 -13.75 13.5 C-11 11 -11 11 -8.8125 9.9375 C-6.42469435 8.70242811 -6.16389103 7.39624623 -5 5 C-3.37253306 3.29503463 -1.71108689 1.62102968 0 0 Z " fill="#AEAFB0" transform="translate(435,86)"/>
<path d="M0 0 C0.66 0.33 1.32 0.66 2 1 C1.67 1.33 1.34 1.66 1 2 C1.83978394 2.02187378 1.83978394 2.02187378 2.6965332 2.04418945 C5.23588137 2.11871352 7.77392078 2.21535581 10.3125 2.3125 C11.63411133 2.34633789 11.63411133 2.34633789 12.98242188 2.38085938 C14.25375977 2.4340332 14.25375977 2.4340332 15.55078125 2.48828125 C16.72120972 2.52755737 16.72120972 2.52755737 17.9152832 2.56762695 C20.44921166 3.0931671 21.36927777 4.0408526 23 6 C22.01 6.495 22.01 6.495 21 7 C21 6.34 21 5.68 21 5 C13.41 5 5.82 5 -2 5 C-1 1 -1 1 0 0 Z " fill="#A2A5A4" transform="translate(429,120)"/>
<path d="M0 0 C0 0.66 0 1.32 0 2 C-0.99 2 -1.98 2 -3 2 C-3.0825 2.7425 -3.165 3.485 -3.25 4.25 C-4.14809799 7.54302595 -5.38416074 8.85976788 -8 11 C-8.66 11 -9.32 11 -10 11 C-10.33 12.32 -10.66 13.64 -11 15 C-11.66 15 -12.32 15 -13 15 C-13 15.66 -13 16.32 -13 17 C-13.66 17 -14.32 17 -15 17 C-13.4759363 11.58110684 -9.74546355 8.01359517 -6 4 C-5.236875 3.175 -4.47375 2.35 -3.6875 1.5 C-2 0 -2 0 0 0 Z " fill="#424242" transform="translate(80,101)"/>
<path d="M0 0 C0.66 0.33 1.32 0.66 2 1 C0.0398607 4.72426467 -1.27539364 6.19777111 -5 8 C-5.309375 8.61875 -5.61875 9.2375 -5.9375 9.875 C-7.36898744 12.73797489 -9.45441327 14.12430451 -12 16 C-12.66 15.67 -13.32 15.34 -14 15 C-12.71937515 13.2925002 -11.38232443 11.62626404 -10 10 C-9.34 10 -8.68 10 -8 10 C-7.67 9.01 -7.34 8.02 -7 7 C-6.34 7 -5.68 7 -5 7 C-4.67 6.01 -4.34 5.02 -4 4 C-2.70644173 2.62804426 -1.37701298 1.28817344 0 0 Z " fill="#A6A8A9" transform="translate(300,222)"/>
<path d="M0 0 C0.33 0.66 0.66 1.32 1 2 C-0.94285146 6.2095115 -3.10012816 7.70007558 -7 10 C-7.309375 10.680625 -7.61875 11.36125 -7.9375 12.0625 C-9 14 -9 14 -12.125 15.25 C-13.07375 15.4975 -14.0225 15.745 -15 16 C-10.30233025 10.33870569 -5.25276628 5.14771096 0 0 Z " fill="#505252" transform="translate(198,283)"/>
<path d="M0 0 C1 2 1 2 0.375 3.9375 C-1 6 -1 6 -3.16015625 7.2109375 C-6.90423122 9.56965323 -9.74053234 12.5264898 -12.8125 15.6875 C-13.40998047 16.29400391 -14.00746094 16.90050781 -14.62304688 17.52539062 C-16.08664185 19.01240312 -17.54396102 20.50558811 -19 22 C-19.66 21.67 -20.32 21.34 -21 21 C-14.07 14.07 -7.14 7.14 0 0 Z " fill="#6A6B6B" transform="translate(400,82)"/>
<path d="M0 0 C1.32 0 2.64 0 4 0 C4 0.66 4 1.32 4 2 C4.5775 2.103125 5.155 2.20625 5.75 2.3125 C8.3300787 3.10085738 9.85452276 4.39089207 12 6 C14.14733927 6.70514846 14.14733927 6.70514846 16 7 C16 7.66 16 8.32 16 9 C16.99 9 17.98 9 19 9 C19.33 9.99 19.66 10.98 20 12 C15.25981099 10.16508812 10.63586749 8.08058541 6 6 C6 5.34 6 4.68 6 4 C4.68 3.67 3.36 3.34 2 3 C2 2.34 2 1.68 2 1 C1.34 0.67 0.68 0.34 0 0 Z " fill="#7E7F7E" transform="translate(391,211)"/>
<path d="M0 0 C0 3.10551666 -0.5393715 4.35261084 -2 7 C-2.66 7 -3.32 7 -4 7 C-4.28875 7.61875 -4.5775 8.2375 -4.875 8.875 C-6 11 -6 11 -8 13 C-9.32 12.67 -10.64 12.34 -12 12 C-8.04 8.04 -4.08 4.08 0 0 Z " fill="#4B4B4D" transform="translate(288,263)"/>
<path d="M0 0 C0.66 0 1.32 0 2 0 C1.52695318 4.25742137 -0.8863822 6.25705098 -4 9 C-4.99 9.33 -5.98 9.66 -7 10 C-6.67 10.598125 -6.34 11.19625 -6 11.8125 C-5 14 -5 14 -5 17 C-7.0625 15.3125 -7.0625 15.3125 -9 13 C-9.125 10.5625 -9.125 10.5625 -8 8 C-6.05874656 6.26526288 -4.05727132 4.5954349 -2 3 C-1.34 2.01 -0.68 1.02 0 0 Z " fill="#606060" transform="translate(78,402)"/>
<path d="M0 0 C0 2.74063855 -0.01670446 4.47571891 -1 7 C-3.06640625 8.703125 -3.06640625 8.703125 -5.5625 10.25 C-6.38878906 10.77078125 -7.21507812 11.2915625 -8.06640625 11.828125 C-9.02353516 12.40820312 -9.02353516 12.40820312 -10 13 C-10.66 12.67 -11.32 12.34 -12 12 C-8.04 8.04 -4.08 4.08 0 0 Z " fill="#413F41" transform="translate(144,337)"/>
<path d="M0 0 C0.33 0.66 0.66 1.32 1 2 C-0.25 4.5625 -0.25 4.5625 -2 7 C-2.99 7.33 -3.98 7.66 -5 8 C-5.28875 8.66 -5.5775 9.32 -5.875 10 C-7 12 -7 12 -9.625 12.75 C-10.40875 12.8325 -11.1925 12.915 -12 13 C-8.19524578 8.43969176 -4.25030379 4.14910608 0 0 Z " fill="#B2B4B5" transform="translate(352,170)"/>
<path d="M0 0 C0.33 0.66 0.66 1.32 1 2 C0.67 2.66 0.34 3.32 0 4 C-0.66 4 -1.32 4 -2 4 C-2 5.32 -2 6.64 -2 8 C4.93 8.495 4.93 8.495 12 9 C12 9.33 12 9.66 12 10 C5.73 10 -0.54 10 -7 10 C-4 4 -4 4 -1 3 C-0.67 2.01 -0.34 1.02 0 0 Z " fill="#393B3B" transform="translate(201,351)"/>
<path d="M0 0 C0 3.69349436 -0.88153908 5.00493457 -3 8 C-5.95822749 10.73067153 -8.09769541 12.17148523 -12 13 C-8.19524578 8.43969176 -4.25030379 4.14910608 0 0 Z " fill="#4A4A4B" transform="translate(173,308)"/>
<path d="M0 0 C0.66 0.33 1.32 0.66 2 1 C-4.02 10.46 -4.02 10.46 -8.75 11.75 C-9.86375 11.87375 -9.86375 11.87375 -11 12 C-7.49102731 7.81576108 -3.91939465 3.80411834 0 0 Z " fill="#BBBCBD" transform="translate(207,248)"/>
<path d="M0 0 C0 3 0 3 -2.046875 5.33984375 C-2.93890625 6.19707031 -3.8309375 7.05429687 -4.75 7.9375 C-5.63171875 8.79214844 -6.5134375 9.64679688 -7.421875 10.52734375 C-8.69804688 11.75130859 -8.69804688 11.75130859 -10 13 C-11.33669325 14.32996493 -12.67133135 15.66201825 -14 17 C-14.66 16.67 -15.32 16.34 -16 16 C-14.96373431 13.26802682 -14.27642795 12.16282742 -11.71875 10.65625 C-8.74416151 8.84414437 -6.60990647 6.80721711 -4.1875 4.3125 C-3.00220703 3.10013672 -3.00220703 3.10013672 -1.79296875 1.86328125 C-1.20128906 1.24839844 -0.60960937 0.63351562 0 0 Z " fill="#868889" transform="translate(129,395)"/>
<path d="M0 0 C0.33 0.66 0.66 1.32 1 2 C-0.91953854 6.05235914 -3.31556259 8.48379884 -7 11 C-8.32274453 11.37314312 -9.65559849 11.71456443 -11 12 C-7.49102731 7.81576108 -3.91939465 3.80411834 0 0 Z " fill="#515151" transform="translate(220,261)"/>
<path d="M0 0 C1.32 0.33 2.64 0.66 4 1 C0.7 4.3 -2.6 7.6 -6 11 C-6.33 10.34 -6.66 9.68 -7 9 C-2.20783646 1.56388416 -2.20783646 1.56388416 0 0 Z " fill="#333435" transform="translate(407,75)"/>
<path d="M0 0 C0.66 0.33 1.32 0.66 2 1 C1.34 2.32 0.68 3.64 0 5 C-0.66 5 -1.32 5 -2 5 C-2 5.66 -2 6.32 -2 7 C-3.375 8.625 -3.375 8.625 -5 10 C-5.66 10 -6.32 10 -7 10 C-7 10.66 -7 11.32 -7 12 C-8.32 11.67 -9.64 11.34 -11 11 C-10.01 10.67 -9.02 10.34 -8 10 C-7.67 9.01 -7.34 8.02 -7 7 C-5.0625 4.8125 -5.0625 4.8125 -3 3 C-2.34 3 -1.68 3 -1 3 C-0.67 2.01 -0.34 1.02 0 0 Z " fill="#565857" transform="translate(265,216)"/>
<path d="M0 0 C0.66 0.33 1.32 0.66 2 1 C0.37660195 2.70884005 -1.29319053 4.37446717 -3 6 C-3.66 6 -4.32 6 -5 6 C-5.33 6.99 -5.66 7.98 -6 9 C-9.0625 10.6875 -9.0625 10.6875 -12 12 C-11.34 10.68 -10.68 9.36 -10 8 C-9.34 8 -8.68 8 -8 8 C-8 7.34 -8 6.68 -8 6 C-5.62722309 3.28825496 -3.41019088 1.25040332 0 0 Z " fill="#B9BBBC" transform="translate(320,204)"/>
<path d="M0 0 C0.33 0.99 0.66 1.98 1 3 C-0.32 3.33 -1.64 3.66 -3 4 C-3 4.99 -3 5.98 -3 7 C-3.66 7 -4.32 7 -5 7 C-5.2475 7.639375 -5.495 8.27875 -5.75 8.9375 C-7 11 -7 11 -9.125 11.75 C-10.053125 11.87375 -10.053125 11.87375 -11 12 C-9.74456576 8.23369729 -8.11311137 7.40558606 -5 5 C-3.31471312 3.35216394 -1.64302953 1.68997323 0 0 Z " fill="#B1B3B4" transform="translate(124,330)"/>
<path d="M0 0 C0.8125 1.6875 0.8125 1.6875 1 4 C-1.40123201 7.03685225 -3.06049508 8.72858747 -6.8125 9.8125 C-7.534375 9.874375 -8.25625 9.93625 -9 10 C-8.06409496 8.8944811 -7.12620142 7.79064547 -6.1875 6.6875 C-5.66542969 6.07261719 -5.14335937 5.45773437 -4.60546875 4.82421875 C-3.12827531 3.14575321 -1.59960869 1.56117966 0 0 Z " fill="#B6B7B9" transform="translate(243,280)"/>
<path d="M0 0 C0.66 0.33 1.32 0.66 2 1 C-1.36328125 8.20703125 -1.36328125 8.20703125 -4 10 C-6.1875 9.6875 -6.1875 9.6875 -8 9 C-2.71428571 2.57142857 -2.71428571 2.57142857 0 0 Z " fill="#3E4140" transform="translate(316,234)"/>
<path d="M0 0 C0.33 0.66 0.66 1.32 1 2 C-0.87577357 6.06417607 -2.93582393 8.12422643 -7 10 C-7.66 9.67 -8.32 9.34 -9 9 C-6.03 6.03 -3.06 3.06 0 0 Z " fill="#505150" transform="translate(218,334)"/>
<path d="M0 0 C0.66 0.33 1.32 0.66 2 1 C1.01 2.485 1.01 2.485 0 4 C-0.66 4 -1.32 4 -2 4 C-2.226875 4.763125 -2.45375 5.52625 -2.6875 6.3125 C-4.26731682 9.54736301 -5.83282717 10.41641358 -9 12 C-9 11.01 -9 10.02 -9 9 C-8.34 9 -7.68 9 -7 9 C-6.67 8.01 -6.34 7.02 -6 6 C-4.35360035 4.64172029 -2.68704193 3.30745749 -1 2 C-0.67 1.34 -0.34 0.68 0 0 Z " fill="#626262" transform="translate(309,172)"/>
<path d="M0 0 C0.33 1.32 0.66 2.64 1 4 C0.113125 4.556875 -0.77375 5.11375 -1.6875 5.6875 C-4.84279378 7.77853792 -7.39868111 10.24566235 -10 13 C-10.66 12.67 -11.32 12.34 -12 12 C-8.04 8.04 -4.08 4.08 0 0 Z " fill="#515353" transform="translate(349,133)"/>
<path d="M0 0 C0.33 0.66 0.66 1.32 1 2 C0.67 2.66 0.34 3.32 0 4 C-0.66 4 -1.32 4 -2 4 C-2.226875 4.598125 -2.45375 5.19625 -2.6875 5.8125 C-4.33811133 8.56351888 -6.1972081 9.52484637 -9 11 C-9.33 10.34 -9.66 9.68 -10 9 C-9.278125 8.443125 -8.55625 7.88625 -7.8125 7.3125 C-5.02542701 5.02090666 -2.51358472 2.58540143 0 0 Z " fill="#545454" transform="translate(329,153)"/>
<path d="M0 0 C0.33 0.66 0.66 1.32 1 2 C-0.43257963 4.72872311 -1.81722366 6.81722366 -4 9 C-5.32 8.67 -6.64 8.34 -8 8 C-5.36 5.36 -2.72 2.72 0 0 Z " fill="#47494A" transform="translate(182,299)"/>
<path d="M0 0 C0.33 0.66 0.66 1.32 1 2 C-0.43257963 4.72872311 -1.81722366 6.81722366 -4 9 C-5.32 8.67 -6.64 8.34 -8 8 C-5.36 5.36 -2.72 2.72 0 0 Z " fill="#AFB1B1" transform="translate(230,293)"/>
<path d="M0 0 C0.66 0.33 1.32 0.66 2 1 C1.67 1.99 1.34 2.98 1 4 C0.34 4 -0.32 4 -1 4 C-1.226875 4.61875 -1.45375 5.2375 -1.6875 5.875 C-3.37929835 8.61410209 -4.99244161 9.05024472 -8 10 C-6.75976392 6.27929177 -5.04269852 5.37478909 -2 3 C-1.34 2.01 -0.68 1.02 0 0 Z " fill="#515153" transform="translate(255,296)"/>
<path d="M0 0 C0.66 0.33 1.32 0.66 2 1 C1.09972412 2.03531726 0.17906965 3.05294165 -0.75 4.0625 C-1.51570313 4.91521484 -1.51570313 4.91521484 -2.296875 5.78515625 C-4 7 -4 7 -6.203125 6.68359375 C-6.79609375 6.45800781 -7.3890625 6.23242188 -8 6 C-3.375 1.125 -3.375 1.125 0 0 Z " fill="#353535" transform="translate(297,256)"/>
<path d="M0 0 C2.875 0.625 2.875 0.625 6 2 C7.375 5.125 7.375 5.125 8 8 C6.02 7.34 4.04 6.68 2 6 C2 4.68 2 3.36 2 2 C1.34 2 0.68 2 0 2 C0 1.34 0 0.68 0 0 Z " fill="#666767" transform="translate(470,104)"/>
<path d="M0 0 C0 3.32058331 -0.43061972 5.08543662 -2 8 C-4.625 9.3125 -4.625 9.3125 -7 10 C-5.6062718 5.56541027 -3.39417765 3.12621626 0 0 Z " fill="#A3A5A4" transform="translate(357,97)"/>
<path d="M0 0 C0.66 0.33 1.32 0.66 2 1 C-4.28571429 6.57142857 -4.28571429 6.57142857 -8 7 C-3.375 1.125 -3.375 1.125 0 0 Z " fill="#4A4A4A" transform="translate(230,253)"/>
<path d="M0 0 C0.99 0 1.98 0 3 0 C1.84826645 2.46800047 0.95216435 4.04783565 -1 6 C-1.99 6 -2.98 6 -4 6 C-2.84826645 3.53199953 -1.95216435 1.95216435 0 0 Z " fill="#4E5150" transform="translate(328,222)"/>
<path d="M0 0 C0 3 0 3 -1.3125 4.38671875 C-2.875 5.59114583 -4.4375 6.79557292 -6 8 C-6.66 7.67 -7.32 7.34 -8 7 C-5.61042731 3.75700849 -3.7952131 1.49097658 0 0 Z " fill="#BBBCBE" transform="translate(294,230)"/>
<path d="M0 0 C0.33 0.66 0.66 1.32 1 2 C-4.94 2.495 -4.94 2.495 -11 3 C-6.85780404 -1.14219596 -5.61724914 -1.31467533 0 0 Z " fill="#808080" transform="translate(176,220)"/>
<path d="M0 0 C1 2 1 2 0.375 3.9375 C-1.3792518 6.5688777 -3.16320216 7.65252103 -6 9 C-6.66 8.67 -7.32 8.34 -8 8 C-5.36 5.36 -2.72 2.72 0 0 Z " fill="#5F5F5F" transform="translate(400,82)"/>
<path d="M0 0 C0.33 0.66 0.66 1.32 1 2 C0.0625 4.625 0.0625 4.625 -1 7 C-1.66 7 -2.32 7 -3 7 C-3 7.66 -3 8.32 -3 9 C-3.66 9 -4.32 9 -5 9 C-3.7508258 5.54074837 -2.32472205 2.85306797 0 0 Z " fill="#6A6A6A" transform="translate(70,109)"/>
<path d="M0 0 C0.66 0.33 1.32 0.66 2 1 C1.24266726 2.3410477 0.46867264 3.67269781 -0.3125 5 C-0.74175781 5.7425 -1.17101562 6.485 -1.61328125 7.25 C-2.07089844 7.8275 -2.52851563 8.405 -3 9 C-3.99 9 -4.98 9 -6 9 C-6 8.34 -6 7.68 -6 7 C-5.34 7 -4.68 7 -4 7 C-3.71125 6.401875 -3.4225 5.80375 -3.125 5.1875 C-2 3 -2 3 0 0 Z " fill="#9D9F9F" transform="translate(348,107)"/>
<path d="M0 0 C0.33 0.99 0.66 1.98 1 3 C0.34 3 -0.32 3 -1 3 C-1.33 3.99 -1.66 4.98 -2 6 C-4.0625 6.6875 -4.0625 6.6875 -6 7 C-4.77065985 3.31197956 -3.06140622 2.27643027 0 0 Z " fill="#A5A6A7" transform="translate(180,344)"/>
<path d="M0 0 C0.66 0.33 1.32 0.66 2 1 C1.0022242 3.99332739 0.2477975 4.94766315 -2 7 C-2.99 6.67 -3.98 6.34 -5 6 C-4.34 5.01 -3.68 4.02 -3 3 C-2.34 3 -1.68 3 -1 3 C-0.67 2.01 -0.34 1.02 0 0 Z " fill="#5C5D5D" transform="translate(281,200)"/>
<path d="M0 0 C0 3.10551666 -0.5393715 4.35261084 -2 7 C-3.32 6.67 -4.64 6.34 -6 6 C-4.02 4.02 -2.04 2.04 0 0 Z " fill="#ABADAF" transform="translate(141,383)"/>
<path d="M0 0 C0 0.99 0 1.98 0 3 C-0.99 3.33 -1.98 3.66 -3 4 C-3.33 4.99 -3.66 5.98 -4 7 C-4.99 6.67 -5.98 6.34 -7 6 C-4.83312509 3.72478134 -2.54379491 1.84205838 0 0 Z " fill="#303232" transform="translate(270,283)"/>
<path d="M0 0 C3.465 1.98 3.465 1.98 7 4 C3.25 6 3.25 6 1 6 C0.67 4.02 0.34 2.04 0 0 Z " fill="#1C1F1E" transform="translate(404,219)"/>
<path d="M0 0 C-1.11375 0.474375 -2.2275 0.94875 -3.375 1.4375 C-5.26710994 2.25306463 -7.15712709 3.07856355 -9 4 C-9.66 3.34 -10.32 2.68 -11 2 C-3.57142857 -1.57142857 -3.57142857 -1.57142857 0 0 Z " fill="#282828" transform="translate(199,153)"/>
</svg>
